<?xml version="1.0" standalone="no"?>
<!DOCTYPE svg PUBLIC "-//W3C//DTD SVG 20010904//EN"
 "http://www.w3.org/TR/2001/REC-SVG-20010904/DTD/svg10.dtd">
<svg version="1.0" xmlns="http://www.w3.org/2000/svg"
 width="365.000000pt" height="365.000000pt" viewBox="0 0 365.000000 365.000000"
 preserveAspectRatio="xMidYMid meet">

<g transform="translate(0.000000,365.000000) scale(0.100000,-0.100000)"
fill="#000000" stroke="none">
<path d="M1579 3335 c-1 -5 -1 -13 0 -17 0 -5 -4 -8 -11 -8 -6 0 -1 -11 13
-26 21 -22 21 -24 4 -18 -20 7 -20 7 -1 -14 13 -15 15 -22 6 -22 -10 0 -10 -3
0 -15 17 -21 20 -65 4 -65 -8 0 -14 4 -14 10 0 5 -12 26 -26 47 -24 36 -25 36
-18 9 5 -21 4 -27 -5 -22 -6 4 -11 15 -11 25 0 22 -23 54 -41 57 -8 1 -23 6
-34 10 -20 7 -20 7 -1 -14 15 -17 16 -22 5 -23 -8 0 0 -7 16 -14 17 -8 23 -14
15 -15 -13 0 -13 -1 0 -10 8 -5 11 -10 5 -10 -5 0 -1 -7 9 -15 11 -8 16 -15
12 -15 -5 0 -1 -11 8 -25 9 -14 13 -25 10 -25 -4 0 1 -9 11 -20 10 -11 15 -20
10 -20 -4 0 -2 -6 4 -13 6 -8 8 -17 4 -20 -3 -4 -2 -7 4 -7 6 0 13 -9 16 -21
5 -17 3 -18 -9 -8 -24 20 -115 59 -124 54 -5 -3 -20 -1 -35 5 -18 7 -24 7 -20
-1 5 -7 -8 -9 -41 -4 -32 4 -44 3 -36 -3 11 -7 8 -11 -12 -16 -42 -10 -91 -63
-53 -57 4 0 7 -4 7 -11 0 -6 10 -3 22 8 12 10 18 13 13 5 -6 -10 -4 -12 5 -6
7 4 33 10 57 12 25 2 55 10 66 18 12 8 28 15 37 14 8 0 1 -7 -17 -15 -17 -7
-34 -18 -38 -24 -9 -14 5 -12 35 5 14 8 32 14 40 14 11 0 11 -2 -3 -10 -14 -8
-16 -14 -6 -25 6 -8 20 -14 31 -14 12 0 16 -4 12 -11 -5 -9 1 -10 22 -5 28 6
28 6 6 -7 -12 -7 -19 -16 -16 -20 4 -4 -22 -7 -57 -7 -45 0 -60 -3 -49 -10 11
-7 3 -10 -30 -10 -25 0 -54 -7 -64 -15 -11 -8 -27 -15 -35 -15 -17 0 -121 -70
-105 -70 5 -1 0 -8 -11 -18 -11 -9 -31 -32 -43 -49 -18 -26 -20 -33 -9 -33 9
0 17 -5 19 -12 3 -7 9 -5 19 6 7 10 23 25 33 34 11 9 30 28 43 41 13 13 26 21
30 18 3 -4 12 -2 20 4 7 6 13 8 13 3 0 -4 14 5 31 22 19 18 28 22 24 11 -4
-10 -3 -17 4 -17 6 0 11 4 11 9 0 5 12 17 28 26 27 18 27 18 9 -2 -16 -19 -17
-21 -1 -27 9 -3 23 -1 30 5 24 20 28 -18 5 -50 -12 -16 -21 -34 -21 -39 0 -6
-10 -27 -21 -47 -21 -35 -21 -36 -3 -50 26 -20 29 -19 45 13 8 15 22 36 32 46
9 11 17 29 17 40 0 17 2 18 10 6 8 -13 11 -11 16 8 4 12 13 22 22 22 8 0 20 7
26 15 6 9 16 11 23 7 10 -6 5 -33 -21 -113 -19 -57 -42 -149 -51 -204 -10 -55
-19 -103 -21 -107 -3 -4 -15 -3 -27 2 -12 5 -50 14 -84 21 -74 15 -81 32 -28
68 19 13 32 27 29 32 -3 5 2 6 10 3 9 -3 24 -3 34 1 16 6 16 7 0 16 -27 15
-89 -6 -123 -41 -16 -16 -32 -30 -35 -30 -7 0 4 98 15 123 5 13 2 17 -13 17
-15 0 -24 -11 -34 -41 l-13 -40 -37 35 c-56 55 -76 45 -25 -11 23 -26 15 -28
-31 -12 -56 19 -55 4 2 -35 58 -40 63 -56 18 -56 -35 0 -88 -33 -97 -60 -9
-29 0 -36 20 -16 24 24 71 46 80 38 3 -4 11 -8 16 -8 5 -1 11 -2 14 -3 2 0
-20 -25 -49 -53 -60 -59 -92 -132 -65 -148 10 -7 16 -1 24 23 13 43 25 60 55
80 35 24 38 22 46 -28 3 -25 9 -45 13 -45 3 0 14 27 25 60 10 33 22 57 27 55
4 -3 11 -27 15 -53 10 -71 52 -199 91 -276 19 -37 33 -69 31 -70 -2 -1 -41
-12 -87 -25 -117 -30 -200 -73 -277 -144 -35 -33 -63 -61 -61 -64 3 -2 26 10
53 27 175 108 387 116 756 29 500 -117 827 -84 947 97 35 54 39 69 14 56 -88
-46 -426 -41 -828 12 -60 8 -169 18 -241 22 l-131 7 -7 116 c-11 196 16 431
72 630 21 76 31 95 50 102 13 5 29 6 35 2 7 -4 20 -6 30 -5 9 2 20 -4 23 -12
3 -9 10 -13 15 -11 4 3 14 -3 21 -15 7 -11 20 -20 30 -20 9 0 30 -13 46 -30
17 -16 33 -30 37 -30 12 0 95 -93 95 -106 0 -21 18 -17 25 6 5 16 12 19 28 15
20 -5 19 -3 -6 19 -23 22 -25 26 -10 26 12 1 6 7 -17 21 -21 12 -26 17 -12 14
37 -10 25 4 -20 25 -36 16 -38 19 -13 14 l30 -5 -34 19 c-23 13 -30 21 -20 24
8 3 -5 11 -28 17 -24 6 -43 14 -43 17 0 4 8 3 18 0 16 -6 16 -5 0 7 -10 8 -15
17 -11 21 4 4 -3 9 -15 13 -12 3 -20 9 -17 13 3 5 -15 19 -41 31 -47 24 -64
39 -44 39 7 0 10 6 7 14 -4 10 0 12 15 8 14 -3 19 -1 14 6 -10 17 11 24 35 11
17 -9 20 -8 14 1 -6 10 -1 12 18 8 16 -3 24 -1 20 5 -4 6 4 7 22 3 26 -7 27
-6 14 10 -13 16 -12 16 19 0 17 -9 32 -12 32 -7 0 6 -10 16 -22 22 -16 8 -19
14 -10 17 8 2 27 -8 43 -24 28 -27 41 -22 17 6 -7 8 1 2 19 -14 30 -27 32 -27
30 -7 -1 11 -6 21 -12 21 -5 0 -3 4 5 10 11 7 9 11 -12 19 -14 5 -36 7 -49 4
-17 -3 -20 -2 -11 5 10 6 0 11 -33 15 -26 4 -51 4 -56 1 -5 -3 -27 -7 -49 -9
-22 -2 -52 -10 -67 -18 -16 -8 -39 -11 -53 -7 l-25 6 23 8 c28 9 58 62 39 69
-6 3 0 6 15 6 30 1 34 21 8 33 -10 4 -4 7 14 7 28 1 29 2 10 16 -18 14 -18 14
6 16 l25 1 -25 8 c-25 8 -12 14 23 11 24 -3 21 8 -5 19 -22 8 -22 9 -3 9 12 1
26 -4 33 -11 7 -7 12 -8 12 -2 0 6 -5 15 -12 22 -9 9 -9 12 2 12 13 0 13 2 0
10 -25 16 -41 11 -76 -24 -19 -19 -34 -31 -34 -27 0 3 -11 -12 -25 -34 -16
-26 -24 -34 -25 -22 0 10 -4 16 -10 12 -5 -3 -9 7 -9 22 1 63 -32 161 -44 131
-3 -7 -6 -4 -6 8 -1 22 -29 66 -32 49z m35 -220 c3 -8 1 -15 -4 -15 -6 0 -10
7 -10 15 0 8 2 15 4 15 2 0 6 -7 10 -15z m-174 -799 c23 -7 35 -17 34 -29 0
-9 -1 -98 -2 -197 l-2 -180 -23 0 c-19 0 -30 15 -64 83 -52 103 -88 207 -98
274 -5 42 -4 53 10 61 20 11 93 5 145 -12z"/>
<path d="M1048 1618 c5 -5 16 -8 23 -6 8 3 3 7 -10 11 -17 4 -21 3 -13 -5z"/>
<path d="M990 1595 c-14 -8 -20 -14 -15 -14 6 0 21 6 35 14 14 8 21 14 15 14
-5 0 -21 -6 -35 -14z"/>
<path d="M1208 1603 c7 -3 16 -2 19 1 4 3 -2 6 -13 5 -11 0 -14 -3 -6 -6z"/>
<path d="M1848 1603 c7 -3 16 -2 19 1 4 3 -2 6 -13 5 -11 0 -14 -3 -6 -6z"/>
<path d="M2123 1589 c-18 -5 -33 -11 -33 -14 0 -8 63 4 73 14 13 13 4 13 -40
0z"/>
<path d="M1428 1583 c6 -2 18 -2 25 0 6 3 1 5 -13 5 -14 0 -19 -2 -12 -5z"/>
<path d="M1998 1578 c5 -5 16 -8 23 -6 8 3 3 7 -10 11 -17 4 -21 3 -13 -5z"/>
<path d="M3143 1338 c-68 -76 -65 -115 7 -83 54 24 83 60 69 86 -13 26 -51 24
-76 -3z"/>
<path d="M2152 1329 c-30 -9 -32 -12 -27 -43 7 -37 -68 -311 -92 -336 -13 -13
-13 -11 -7 14 6 25 4 28 -10 23 -20 -8 -20 -1 0 73 14 47 15 64 5 87 -18 43
-64 66 -135 67 -74 1 -124 -18 -132 -50 -9 -34 12 -54 55 -54 40 0 61 14 61
42 0 10 7 18 15 18 10 0 15 -10 15 -27 0 -51 -13 -58 -94 -58 -64 0 -78 -3
-100 -24 -14 -13 -28 -36 -31 -52 -7 -31 15 -83 40 -93 31 -11 90 -6 114 10
22 16 25 16 51 0 32 -18 82 -21 110 -6 13 7 21 7 25 0 8 -13 182 -13 190 0 3
5 2 17 -3 26 -6 11 6 69 41 186 47 162 48 170 31 189 -19 21 -66 24 -122 8z
m-289 -309 c-7 -28 -31 -46 -44 -33 -15 15 7 53 30 53 14 0 18 -5 14 -20z"/>
<path d="M900 1321 c-22 -6 -25 -12 -22 -44 3 -34 -65 -286 -87 -325 -9 -15
-10 -14 -11 6 0 13 -6 22 -16 22 -9 0 -14 6 -11 13 54 145 20 210 -110 211
-81 1 -131 -17 -139 -50 -9 -34 12 -54 55 -54 40 0 61 14 61 41 0 24 19 34 26
15 3 -9 3 -32 0 -51 l-7 -34 -62 6 c-48 4 -71 2 -96 -11 -36 -19 -60 -65 -53
-102 10 -56 99 -84 151 -48 22 16 25 16 51 0 32 -18 82 -21 110 -6 13 7 21 7
25 0 8 -12 165 -13 184 -1 9 6 10 14 3 27 -7 14 3 61 39 184 27 90 49 168 49
172 0 32 -75 48 -140 29z m-287 -308 c-16 -45 -43 -57 -43 -20 0 28 7 37 31
37 13 0 17 -5 12 -17z"/>
<path d="M1605 1293 c-30 -8 -41 -19 -123 -121 -41 -52 -78 -90 -82 -85 -4 4
-20 46 -35 93 -15 47 -32 91 -38 98 -7 9 -31 12 -76 10 l-66 -3 3 -40 c3 -50
-60 -285 -82 -301 -24 -17 -19 -33 10 -40 34 -9 80 8 75 27 -7 24 -1 62 17
124 l18 60 33 -97 c18 -54 37 -101 42 -104 25 -15 59 12 129 100 41 52 76 94
77 92 9 -9 -24 -123 -44 -152 -12 -19 -23 -37 -23 -40 0 -3 44 -3 98 -2 l97 3
-3 32 c-4 44 64 295 85 310 28 21 8 39 -43 40 -27 1 -58 -1 -69 -4z"/>
<path d="M147 1283 c-14 -4 -17 -11 -13 -31 8 -37 -66 -299 -89 -316 -35 -25
-7 -36 90 -36 52 0 96 4 100 10 3 5 0 18 -7 29 -8 14 -9 30 -2 58 l9 38 70 6
c82 6 128 28 155 72 44 71 17 145 -61 167 -34 10 -218 12 -252 3z m191 -103
c-6 -57 -30 -90 -65 -90 -12 0 -23 1 -23 3 0 4 29 104 35 125 3 6 16 12 31 12
26 0 26 -1 22 -50z"/>
<path d="M2706 1219 c-47 -11 -102 -44 -110 -64 -8 -23 -23 -18 -30 10 -9 35
-55 55 -123 55 -118 0 -192 -68 -193 -176 0 -82 57 -134 145 -134 62 0 135 48
135 89 0 7 -21 8 -61 4 -53 -5 -64 -4 -75 12 -22 30 -17 35 36 35 28 0 67 7
87 15 19 8 37 15 38 15 1 0 5 -23 7 -52 4 -41 11 -57 35 -79 57 -50 158 -45
215 11 38 38 38 65 1 54 -48 -14 -95 -9 -110 12 -21 28 -10 91 21 122 24 24
26 25 31 6 14 -43 22 -49 69 -48 44 0 45 -1 38 -25 -28 -105 26 -166 148 -165
110 1 185 55 211 154 24 94 -32 153 -145 153 -69 -1 -119 -19 -163 -60 l-30
-29 -10 27 c-20 51 -92 76 -167 58z m-273 -82 c-7 -27 -22 -47 -35 -47 -12 0
-2 49 14 67 15 18 27 7 21 -20z m644 -16 c-8 -64 -45 -151 -65 -151 -11 0 -14
9 -9 43 7 63 46 157 64 157 13 0 15 -9 10 -49z"/>
<path d="M3303 1219 c-38 -11 -49 -25 -33 -44 8 -10 4 -37 -20 -113 -17 -55
-38 -106 -45 -112 -8 -7 -12 -16 -9 -21 6 -10 177 -12 187 -3 3 4 2 15 -4 26
-12 22 26 155 50 176 37 30 40 4 10 -79 -27 -74 -20 -105 26 -125 37 -15 75
-11 113 12 24 16 30 50 10 57 -10 3 -9 18 5 69 23 87 22 121 -4 144 -28 25
-90 24 -126 -2 l-29 -22 -27 24 c-30 25 -52 28 -104 13z"/>
<path d="M1828 653 c7 -3 16 -2 19 1 4 3 -2 6 -13 5 -11 0 -14 -3 -6 -6z"/>
<path d="M1868 654 c25 -12 11 -20 -38 -21 -55 -2 -70 -8 -70 -26 0 -7 4 -6
10 3 8 12 10 10 11 -10 2 -40 -2 -65 -13 -71 -7 -4 -7 -8 0 -10 5 -2 13 -15
17 -28 5 -16 4 -21 -4 -17 -6 4 -11 2 -11 -3 0 -6 5 -11 12 -11 6 0 4 -6 -6
-13 -16 -12 -16 -14 -2 -26 23 -20 36 -4 36 45 l0 44 40 0 c27 0 43 5 47 15 7
20 5 22 -32 30 l-30 6 25 -15 c25 -15 24 -15 -17 -13 -24 2 -43 -1 -43 -5 0
-4 -4 -8 -10 -8 -5 0 -7 7 -4 15 4 10 14 14 28 10 11 -2 15 -2 9 1 -7 3 -13
19 -13 35 0 27 2 29 43 29 72 0 90 29 27 44 -14 3 -19 3 -12 0z"/>
<path d="M2270 650 c-19 -4 -29 -8 -22 -9 6 0 12 -6 12 -12 0 -5 -4 -7 -10 -4
-5 3 -10 -1 -10 -10 0 -9 -5 -13 -10 -10 -6 4 -7 11 -4 17 4 7 2 8 -5 4 -9 -6
-9 -11 1 -24 10 -11 10 -16 1 -19 -11 -4 -9 -59 4 -93 4 -8 6 -22 5 -30 -1
-10 0 -11 4 -2 9 19 23 14 17 -6 -6 -26 36 -46 79 -38 106 20 130 166 37 220
-17 10 -29 14 -25 7 9 -14 -14 -14 -34 0 -13 9 -12 10 3 5 11 -3 16 -2 12 4
-3 6 -9 9 -13 9 -4 -1 -23 -5 -42 -9z m97 -34 c-4 -10 -1 -13 9 -9 7 3 14 1
14 -5 0 -6 3 -19 6 -29 5 -15 4 -15 -5 -3 -9 13 -11 13 -11 -2 0 -9 4 -19 10
-23 10 -6 9 -65 -1 -62 -3 1 -17 -11 -32 -28 -17 -20 -27 -25 -27 -15 0 13 -1
13 -10 0 -9 -13 -10 -13 -10 0 0 13 -2 13 -9 1 -11 -17 -45 -6 -38 12 3 7 -1
21 -9 32 -20 26 -17 79 4 105 15 19 50 31 106 39 4 0 6 -6 3 -13z"/>
<path d="M2375 520 c-3 -5 -1 -10 4 -10 6 0 11 5 11 10 0 6 -2 10 -4 10 -3 0
-8 -4 -11 -10z"/>
<path d="M2516 643 c2 -7 0 -13 -4 -13 -5 0 -14 6 -21 13 -11 10 -13 10 -7 0
12 -22 -5 -36 -20 -16 -7 10 -14 13 -14 8 0 -6 6 -17 13 -23 13 -14 18 -104 5
-96 -4 3 -5 -2 -2 -10 3 -9 10 -16 15 -16 4 0 6 -6 3 -14 -3 -8 -1 -17 5 -21
12 -7 12 -4 14 95 l2 65 43 3 c46 3 49 22 2 22 -15 0 -30 3 -33 8 -2 4 -2 1
-1 -5z"/>
<path d="M1230 640 c13 -10 12 -11 -5 -7 -11 2 -26 -2 -33 -10 -15 -15 -36
-18 -27 -3 10 16 -1 11 -16 -7 -12 -14 -12 -15 0 -9 10 7 12 3 6 -14 -5 -16
-4 -20 5 -15 9 5 10 1 6 -16 -3 -13 -3 -18 0 -11 8 17 27 15 21 -3 -7 -17 -3
-20 40 -30 29 -6 32 -4 26 11 -4 12 -8 14 -11 5 -6 -18 -52 27 -52 51 0 29 46
42 83 23 34 -17 61 -5 39 17 -9 9 -15 10 -20 2 -8 -13 -44 -3 -42 11 0 6 -7
11 -17 13 -15 3 -16 1 -3 -8z"/>
<path d="M1480 640 c0 -5 -22 -10 -50 -10 -49 0 -50 0 -50 -32 0 -36 -12 -30
-18 10 -5 43 -12 39 -9 -6 1 -22 4 -39 6 -37 2 3 12 0 22 -6 17 -8 19 -6 19
21 0 30 0 30 54 30 59 0 79 13 46 30 -13 7 -20 7 -20 0z"/>
<path d="M1625 640 c-4 -6 -10 -8 -15 -5 -4 3 -11 -2 -14 -10 -4 -13 -2 -13
14 -5 26 14 30 13 30 -10 0 -11 5 -20 12 -20 6 0 8 -3 5 -7 -4 -3 -2 -12 4
-20 6 -7 9 -22 6 -34 -4 -15 -2 -19 9 -15 8 3 14 1 14 -4 0 -6 -4 -10 -9 -10
-5 0 -1 -15 8 -34 9 -18 19 -32 23 -29 4 2 5 -3 2 -11 -4 -11 0 -16 10 -16 24
0 21 15 -30 133 -45 103 -56 119 -69 97z"/>
<path d="M1977 636 c-9 -9 -12 -26 -9 -43 5 -25 4 -27 -11 -14 -16 12 -16 11
-3 -20 8 -19 12 -48 10 -66 -2 -18 1 -35 6 -38 6 -3 7 1 4 9 -3 9 -1 16 5 16
6 0 11 -3 11 -8 0 -4 9 -13 21 -20 20 -13 20 -12 -1 16 -44 60 -20 139 45 146
16 2 30 8 31 15 1 6 0 7 -2 2 -4 -7 -12 -6 -23 1 -10 6 -27 8 -37 4 -11 -4
-19 -6 -20 -4 0 2 -7 -1 -15 -7 -8 -5 -6 -2 4 8 11 9 15 17 9 17 -6 0 -17 -6
-25 -14z"/>
<path d="M2608 631 c8 -5 14 -24 15 -44 0 -20 4 -34 8 -32 3 3 4 -8 2 -23 -4
-21 -2 -24 6 -12 6 8 11 11 11 5 0 -15 -16 -37 -26 -36 -5 0 -9 -5 -9 -12 -1
-20 -14 -36 -33 -36 -9 0 -31 -3 -48 -7 -18 -3 -41 -1 -53 5 -17 10 -20 9 -15
-4 7 -18 110 -21 148 -4 28 13 56 64 56 102 0 49 -35 107 -63 107 -8 0 -7 -3
1 -9z"/>
<path d="M2100 611 c0 -6 4 -12 8 -15 5 -3 9 1 9 9 0 8 -4 15 -9 15 -4 0 -8
-4 -8 -9z"/>
<path d="M2133 597 c0 -15 3 -27 8 -27 11 0 6 -57 -6 -68 -5 -4 -4 0 0 8 5 8
-8 -2 -29 -23 -25 -27 -42 -37 -54 -32 -14 5 -15 4 -4 -6 6 -7 12 -16 12 -20
0 -9 -41 1 -57 13 -7 6 -14 4 -19 -4 -4 -7 -4 -10 1 -6 4 4 14 1 22 -7 8 -8
32 -15 53 -15 30 0 46 7 74 34 32 30 36 39 36 84 0 34 -6 57 -19 73 l-18 23 0
-27z m-18 -137 c-10 -11 -20 -18 -23 -15 -3 3 3 14 13 25 10 11 20 18 23 15 3
-3 -3 -14 -13 -25z"/>
<path d="M1594 569 c-9 -18 -13 -41 -10 -55 4 -13 2 -25 -4 -25 -5 -1 -15 -2
-22 -3 -6 0 -13 -7 -16 -15 -3 -9 0 -11 7 -6 9 5 9 1 0 -14 -10 -14 -15 -17
-21 -8 -6 9 -8 9 -8 0 0 -9 -7 -10 -26 -3 -14 6 -23 6 -20 1 6 -10 -26 -21
-63 -21 -14 0 -33 8 -44 18 -19 16 -20 16 -8 -6 11 -21 17 -23 107 -21 90 2
96 4 105 26 8 23 27 28 77 24 35 -3 26 17 -12 24 -19 4 -33 12 -32 18 9 41 19
67 27 67 15 0 10 17 -6 24 -10 3 -20 -5 -31 -25z"/>
<path d="M1566 555 c-9 -26 -7 -32 5 -12 6 10 9 21 6 23 -2 3 -7 -2 -11 -11z"/>
<path d="M2121 544 c0 -11 3 -14 6 -6 3 7 2 16 -1 19 -3 4 -6 -2 -5 -13z"/>
<path d="M1388 520 c-14 -16 -30 -25 -34 -22 -4 4 -4 1 0 -6 4 -7 12 -9 18 -6
7 5 9 1 5 -9 -3 -9 0 -18 9 -21 10 -4 14 3 14 24 0 28 3 30 38 30 43 0 68 13
58 29 -10 15 -43 14 -49 -1 -3 -10 -7 -10 -18 -1 -11 9 -20 6 -41 -17z"/>
<path d="M1935 520 c-3 -5 -1 -10 4 -10 6 0 11 5 11 10 0 6 -2 10 -4 10 -3 0
-8 -4 -11 -10z"/>
<path d="M2190 521 c0 -5 5 -13 10 -16 6 -3 10 -2 10 4 0 5 -4 13 -10 16 -5 3
-10 2 -10 -4z"/>
<path d="M1296 489 c3 -22 -2 -36 -14 -45 -20 -16 -36 -18 -27 -4 3 6 -1 7 -9
4 -9 -3 -16 -10 -16 -15 0 -5 -7 -9 -16 -9 -8 0 -12 4 -9 10 3 6 -1 7 -9 4 -9
-3 -16 -1 -16 6 0 6 -4 8 -10 5 -5 -3 -10 1 -10 10 0 10 -5 13 -12 9 -23 -14
40 -54 85 -54 61 0 89 23 85 68 -2 19 -8 37 -14 39 -7 3 -10 -8 -8 -28z"/>
</g>
</svg>
